<?xml version="1.0" encoding="iso-8859-1"?>
<!-- Uploaded to: SVG Repo, www.svgrepo.com, Generator: SVG Repo Mixer Tools -->
<svg version="1.1" id="Layer_1" xmlns="http://www.w3.org/2000/svg" xmlns:xlink="http://www.w3.org/1999/xlink" 
	 viewBox="0 0 512 512" xml:space="preserve">
<circle style="fill:#EFEFEF;" cx="256" cy="256" r="256"/>
<rect x="64" y="155.04" style="fill:#FFFFFF;" width="384" height="232"/>
<path style="fill:#999999;" d="M448,155.12v-24.56c0-12.96-10.56-23.52-23.52-23.52H87.52C74.56,107.04,64,117.6,64,130.56v24.56
	H448z"/>
<g>
	<circle style="fill:#FFFFFF;" cx="97.2" cy="131.04" r="6.72"/>
	<circle style="fill:#FFFFFF;" cx="117.28" cy="131.04" r="6.72"/>
	<circle style="fill:#FFFFFF;" cx="137.36" cy="131.04" r="6.72"/>
	<path style="fill:#FFFFFF;" d="M388.32,142.8H204.08c-6.48,0-11.76-5.28-11.76-11.76l0,0c0-6.48,5.28-11.76,11.76-11.76h184.16
		c6.48,0,11.76,5.28,11.76,11.76l0,0C400,137.52,394.72,142.8,388.32,142.8z"/>
</g>
<rect x="291.668" y="309.678" transform="matrix(-0.7071 0.7071 -0.7071 -0.7071 734.6533 332.0921)" style="fill:#00C454;" width="13.76" height="17.04"/>
<g>
	
		<rect x="294.712" y="321.354" transform="matrix(-0.7071 0.7071 -0.7071 -0.7071 765.8192 344.9342)" style="fill:#3B3B3B;" width="33.52" height="19.44"/>
	<circle style="fill:#3B3B3B;" cx="247.84" cy="257.12" r="74"/>
</g>
<circle style="fill:#FFFFFF;" cx="247.84" cy="257.12" r="62.24"/>
<g>
	
		<rect x="316.602" y="325.263" transform="matrix(-0.7071 -0.7071 0.7071 -0.7071 308.4603 811.8138)" style="fill:#00C454;" width="11.52" height="33.52"/>
	<path style="fill:#00C454;" d="M244.32,298.4v-10.48c-6-0.08-12.24-2-15.92-4.56l2.48-6.96c3.76,2.48,9.12,4.48,14.96,4.48
		c7.36,0,12.32-4.24,12.32-10.16c0-5.68-4.08-9.28-11.76-12.4c-10.56-4.16-17.12-8.96-17.12-18c0-8.64,6.16-15.2,15.68-16.72v-10.48
		h6.4v10.08c6.24,0.24,10.48,1.84,13.52,3.6l-2.56,6.88c-2.16-1.28-6.4-3.52-13.12-3.52c-8,0-11.04,4.8-11.04,8.96
		c0,5.44,3.84,8.08,12.88,11.84c10.72,4.32,16.08,9.76,16.08,19.04c0,8.24-5.68,15.92-16.4,17.68v10.8h-6.4V298.4z"/>
</g>
</svg>